<svg xmlns="http://www.w3.org/2000/svg" viewBox="0 0 200 200">
  <!-- brown seed pod -->
  <ellipse cx="100" cy="155" rx="50" ry="36" fill="#5C3A21"/>
  <!-- green seed -->
  <ellipse cx="92" cy="148" rx="44" ry="32" fill="#77A73F"/>
  <!-- white sprout swoosh on seed -->
  <path d="M64 140 q-8 14 0 28 q4 -18 24 -26 q-14 -10 -24 -2z" fill="#FBFDF7"/>
  <!-- left leaf -->
  <path d="M92 122 Q58 116 50 82 Q86 80 98 114 Q96 122 92 122 Z" fill="#77A73F"/>
  <!-- navy K-leg sweeping down across the stem -->
  <path d="M156 50 L172 66 Q142 94 138 118 Q154 144 158 172 L138 180 Q132 150 120 128 Q126 96 156 50 Z" fill="#1E3A5F"/>
  <!-- green growth-arrow shaft rising from the seed -->
  <path d="M84 130 Q92 66 146 30 L160 46 Q112 82 104 134 Q92 136 84 130 Z" fill="#77A73F"/>
  <!-- navy arrowhead -->
  <path d="M136 24 L190 6 L174 62 Z" fill="#1E3A5F"/>
</svg>
